<svg xmlns="http://www.w3.org/2000/svg" viewBox="0 0 48 48" width="48" height="48">
  <defs>
    <radialGradient id="bg" cx="50%" cy="38%" r="58%">
      <stop offset="0%" stop-color="#C084FC" stop-opacity="0.28"/>
      <stop offset="100%" stop-color="#0d0010"/>
    </radialGradient>
    <filter id="glow"><feGaussianBlur stdDeviation="1.2" result="b"/><feMerge><feMergeNode in="b"/><feMergeNode in="SourceGraphic"/></feMerge></filter>
    <filter id="sh"><feDropShadow dx="0" dy="1.5" stdDeviation="2.5" flood-color="rgba(0,0,0,0.75)"/></filter>
  </defs>
  <circle cx="24" cy="24" r="22" fill="url(#bg)" stroke="#C084FC" stroke-width="2.2" filter="url(#sh)"/>
  <path d="M12 26 a12 12 0 0 1 24 0 v4 a12 4 0 0 1 -24 0 z" fill="#ffffff" filter="url(#glow)" />
  <path d="M14 30 h20 v5 a10 3 0 0 1 -20 0 z" fill="#e0d0f0" filter="url(#glow)" />
  <rect x="16" y="33" width="3" height="2" fill="#0d0010" filter="url(#glow)"/>
  <rect x="21" y="33" width="3" height="2" fill="#0d0010" filter="url(#glow)"/>
  <rect x="26" y="33" width="3" height="2" fill="#0d0010" filter="url(#glow)"/>
  <path d="M16 22 a4 4 0 1 1 8 0 a4 4 0 1 1 -8 0" fill="#0d0010" filter="url(#glow)" />
  <path d="M24 22 a4 4 0 1 1 8 0 a4 4 0 1 1 -8 0" fill="#0d0010" filter="url(#glow)" />
  <path d="M22 27 l2 -3 l2 3 z" fill="#0d0010" filter="url(#glow)" />
</svg>